# xmcd CD database file
#
# Track frame offsets:
#	150
#	27690
#	59399
#	86225
#	120414
#	157086
#	160626
#	199219
#	227346
#
# Disc length: 3645 seconds
#
# Revision: 0
# Processed by: cddbd v1.5.2PL0 Copyright (c) Steve Scherf et al.
# Submitted via: CDex 1.51
#
DISCID=710e3b09
DTITLE=Ginger Commodore and GCQ - Live ath Hot Summer Jazz
DYEAR=2007
DGENRE=Jazz
TTITLE0=I Get A Kick Out Of You
TTITLE1=Who Can I Turn To
TTITLE2=Unchained Melody
TTITLE3=Will You Still Love Me Tomorrow
TTITLE4=My Funny Valentine
TTITLE5=Band Intro.
TTITLE6=Sweet Love
TTITLE7=Since I Fell For You
TTITLE8=Fever
EXTD=YEAR: 2007
EXTT0=
EXTT1=
EXTT2=
EXTT3=
EXTT4=
EXTT5=
EXTT6=
EXTT7=
EXTT8=
PLAYORDER=
